<svg xmlns="http://www.w3.org/2000/svg" viewBox="0 0 128 128" role="img" aria-label="Nimbus">
<title>Nimbus</title>
<style>
.eyes{transform-box:fill-box;transform-origin:center;animation:blink 5.2s infinite}
@keyframes blink{0%,94%,100%{transform:scaleY(1)}96.5%{transform:scaleY(.1)}}
@media (prefers-reduced-motion: reduce){*{animation:none!important}}
</style>
<defs><radialGradient id="b" cx="38%" cy="25%" r="75%"><stop offset="0" stop-color="#f4f0ff"/><stop offset="1" stop-color="#a193ef"/></radialGradient></defs>
<ellipse cx="64" cy="118" rx="36" ry="4.5" fill="#1a1530" opacity=".14"/>
<g fill="url(#b)">
  <circle cx="40" cy="74" r="22"/><circle cx="64" cy="56" r="28"/><circle cx="90" cy="70" r="22"/>
  <circle cx="102" cy="86" r="14"/><circle cx="26" cy="88" r="13"/>
  <rect x="24" y="72" width="82" height="32" rx="16"/>
</g>
<ellipse cx="54" cy="44" rx="11" ry="6" fill="#fff" opacity=".6" transform="rotate(-20 54 44)"/>
<path d="M98 108 C101 113 103 116 103 118 A5 5 0 0 1 93 118 C93 116 95 113 98 108Z" fill="#7fb8ff"/>
<g class="eyes">
  <ellipse cx="50" cy="76" rx="5" ry="6.5" fill="#2b2440"/><ellipse cx="78" cy="76" rx="5" ry="6.5" fill="#2b2440"/>
  <circle cx="51.6" cy="73.4" r="2" fill="#fff"/><circle cx="79.6" cy="73.4" r="2" fill="#fff"/>
</g>
<ellipse cx="42" cy="85" rx="6" ry="3.5" fill="#ff7f9e" opacity=".55"/><ellipse cx="86" cy="85" rx="6" ry="3.5" fill="#ff7f9e" opacity=".55"/>
<ellipse cx="64" cy="89" rx="3.2" ry="3.8" fill="#2b2440"/>
</svg>
